<svg width="24" height="24" viewBox="0 0 24 24" fill="none" xmlns="http://www.w3.org/2000/svg">
<g id="Frame" clip-path="url(#clip0_7_366)">
<path id="Vector" d="M4 18.9993C4 19.5297 4.21071 20.0384 4.58579 20.4135C4.96086 20.7886 5.46957 20.9993 6 20.9993C6.53043 20.9993 7.03914 20.7886 7.41421 20.4135C7.78929 20.0384 8 19.5297 8 18.9993C8 18.4688 7.78929 17.9601 7.41421 17.5851C7.03914 17.21 6.53043 16.9993 6 16.9993C5.46957 16.9993 4.96086 17.21 4.58579 17.5851C4.21071 17.9601 4 18.4688 4 18.9993Z" stroke="#89898B" stroke-width="1.5" stroke-linecap="round" stroke-linejoin="round"/>
<path id="Vector_2" d="M12 16.9993H6V2.99927H4" stroke="#89898B" stroke-width="1.5" stroke-linecap="round" stroke-linejoin="round"/>
<path id="Vector_3" d="M6 4.99927L20 5.99927L19.284 11.0103M14 12.9993H6" stroke="#89898B" stroke-width="1.5" stroke-linecap="round" stroke-linejoin="round"/>
<path id="Vector_4" d="M21.121 20.1203C21.5406 19.7007 21.8265 19.1662 21.9423 18.5842C22.0581 18.0023 21.9988 17.399 21.7717 16.8508C21.5447 16.3026 21.1602 15.834 20.6668 15.5043C20.1734 15.1746 19.5934 14.9986 19 14.9986C18.4066 14.9986 17.8266 15.1746 17.3332 15.5043C16.8398 15.834 16.4553 16.3026 16.2283 16.8508C16.0012 17.399 15.9419 18.0023 16.0577 18.5842C16.1735 19.1662 16.4594 19.7007 16.879 20.1203C17.297 20.5393 18.004 21.1653 19 21.9993C20.051 21.1093 20.759 20.4833 21.121 20.1203Z" stroke="#89898B" stroke-width="1.5" stroke-linecap="round" stroke-linejoin="round"/>
<path id="Vector_5" d="M19 17.9993V18.0093" stroke="#89898B" stroke-width="1.5" stroke-linecap="round" stroke-linejoin="round"/>
</g>
<defs>
<clipPath id="clip0_7_366">
<rect width="24" height="24" fill="white" transform="translate(0 -0.000732422)"/>
</clipPath>
</defs>
</svg>
